<?xml version="1.0" standalone="no"?>
<!DOCTYPE svg PUBLIC "-//W3C//DTD SVG 20010904//EN"
 "http://www.w3.org/TR/2001/REC-SVG-20010904/DTD/svg10.dtd">
<svg version="1.0" xmlns="http://www.w3.org/2000/svg"
 width="50.000000pt" height="50.000000pt" viewBox="0 0 50.000000 50.000000"
 preserveAspectRatio="xMidYMid meet">

<g transform="translate(0.000000,50.000000) scale(0.100000,-0.100000)"
fill="#000000" stroke="none">
<path d="M93 415 c-38 -16 -62 -50 -70 -98 -12 -78 39 -158 150 -235 l77 -53
47 32 c93 63 132 101 158 152 28 58 31 93 11 142 -28 65 -111 92 -178 57 -37
-20 -39 -20 -75 -1 -44 22 -76 23 -120 4z m122 -31 l38 -25 22 21 c31 29 84
36 123 16 66 -34 79 -119 29 -195 -27 -41 -152 -141 -176 -141 -24 0 -157 106
-180 144 -46 73 -36 151 23 187 42 26 76 24 121 -7z"/>
</g>
</svg>
