<?xml version="1.0" standalone="no"?>
<!DOCTYPE svg PUBLIC "-//W3C//DTD SVG 20010904//EN"
 "http://www.w3.org/TR/2001/REC-SVG-20010904/DTD/svg10.dtd">
<svg version="1.0" xmlns="http://www.w3.org/2000/svg"
 width="512.000000pt" height="512.000000pt" viewBox="0 0 512.000000 512.000000"
 preserveAspectRatio="xMidYMid meet">

<g transform="translate(0.000000,512.000000) scale(0.100000,-0.100000)"
fill="#000000" stroke="none">
<path d="M2335 5105 c-273 -42 -517 -172 -708 -375 -210 -223 -319 -481 -334
-790 -21 -432 191 -845 557 -1084 180 -118 353 -178 563 -195 389 -30 721 92
989 365 262 267 379 596 347 974 -28 324 -171 603 -419 817 -196 168 -376 252
-625 288 -120 17 -260 18 -370 0z m426 -314 c157 -40 275 -109 407 -236 172
-163 259 -343 282 -576 27 -276 -58 -528 -245 -728 -116 -124 -287 -229 -432
-266 -215 -54 -471 -31 -655 60 -251 124 -437 356 -505 630 -26 105 -23 342 6
450 77 290 329 559 609 650 152 49 379 56 533 16z"/>
<path d="M1427 2639 c-153 -16 -311 -74 -436 -158 -312 -212 -514 -686 -561
-1316 -26 -354 -5 -529 86 -712 50 -102 145 -214 242 -286 74 -54 198 -110
307 -138 l90 -24 1400 0 1400 0 90 23 c316 83 537 296 616 597 41 155 36 525
-12 817 -105 650 -371 1040 -792 1162 -96 28 -268 49 -319 39 -49 -9 -117 -45
-271 -144 -166 -107 -192 -121 -316 -166 -146 -53 -255 -74 -390 -74 -140 0
-248 20 -390 70 -134 48 -140 51 -350 184 -110 70 -192 115 -224 124 -56 14
-56 14 -170 2z m260 -395 c188 -121 267 -160 432 -214 430 -141 869 -73 1283
198 187 123 183 121 262 111 363 -46 590 -351 686 -924 39 -236 51 -565 25
-690 -42 -201 -178 -343 -386 -402 -60 -17 -139 -18 -1434 -18 -1298 0 -1373
1 -1435 18 -149 42 -278 144 -338 267 -52 106 -65 195 -57 410 7 217 17 318
52 495 26 138 87 334 130 419 129 256 304 396 531 425 37 5 71 9 75 10 4 0 82
-47 174 -105z"/>
</g>
</svg>
